<svg width="181" height="66" viewBox="0 0 181 66" fill="none" xmlns="http://www.w3.org/2000/svg">
<rect width="181" height="66" fill="#C4C4C4"/>
<path d="M80.8848 29.3945H78.1426V37H77.0234V29.3945H74.2871V28.4688H80.8848V29.3945ZM84.0254 37.1172C83.166 37.1172 82.4668 36.8359 81.9277 36.2734C81.3887 35.707 81.1191 34.9512 81.1191 34.0059V33.8066C81.1191 33.1777 81.2383 32.6172 81.4766 32.125C81.7188 31.6289 82.0547 31.2422 82.4844 30.9648C82.918 30.6836 83.3867 30.543 83.8906 30.543C84.7148 30.543 85.3555 30.8145 85.8125 31.3574C86.2695 31.9004 86.498 32.6777 86.498 33.6895V34.1406H82.2031C82.2188 34.7656 82.4004 35.2715 82.748 35.6582C83.0996 36.041 83.5449 36.2324 84.084 36.2324C84.4668 36.2324 84.791 36.1543 85.0566 35.998C85.3223 35.8418 85.5547 35.6348 85.7539 35.377L86.416 35.8926C85.8848 36.709 85.0879 37.1172 84.0254 37.1172ZM83.8906 31.4336C83.4531 31.4336 83.0859 31.5938 82.7891 31.9141C82.4922 32.2305 82.3086 32.6758 82.2383 33.25H85.4141V33.168C85.3828 32.6172 85.2344 32.1914 84.9688 31.8906C84.7031 31.5859 84.3438 31.4336 83.8906 31.4336ZM89.7324 34.2988H88.9414V37H87.8516V30.6602H88.9414V33.3438H89.6504L91.7832 30.6602H93.0957L90.5879 33.707L93.3066 37H91.9297L89.7324 34.2988ZM96.6875 36.2324C97.0742 36.2324 97.4121 36.1152 97.7012 35.8809C97.9902 35.6465 98.1504 35.3535 98.1816 35.002H99.207C99.1875 35.3652 99.0625 35.7109 98.832 36.0391C98.6016 36.3672 98.293 36.6289 97.9062 36.8242C97.5234 37.0195 97.1172 37.1172 96.6875 37.1172C95.8242 37.1172 95.1367 36.8301 94.625 36.2559C94.1172 35.6777 93.8633 34.8887 93.8633 33.8887V33.707C93.8633 33.0898 93.9766 32.541 94.2031 32.0605C94.4297 31.5801 94.7539 31.207 95.1758 30.9414C95.6016 30.6758 96.1035 30.543 96.6816 30.543C97.3926 30.543 97.9824 30.7559 98.4512 31.1816C98.9238 31.6074 99.1758 32.1602 99.207 32.8398H98.1816C98.1504 32.4297 97.9941 32.0938 97.7129 31.832C97.4355 31.5664 97.0918 31.4336 96.6816 31.4336C96.1309 31.4336 95.7031 31.6328 95.3984 32.0312C95.0977 32.4258 94.9473 32.998 94.9473 33.748V33.9531C94.9473 34.6836 95.0977 35.2461 95.3984 35.6406C95.6992 36.0352 96.1289 36.2324 96.6875 36.2324ZM105.137 31.5391H103.01V37H101.926V31.5391H99.8398V30.6602H105.137V31.5391Z" fill="black"/>
</svg>
