<svg width="698" height="581" viewBox="0 0 698 581" fill="none" xmlns="http://www.w3.org/2000/svg">

    <g><rect opacity="0.1" x="2.55859" y="3.11792" width="692.37" height="574.441" rx="97.5" stroke="#0C4CA3" stroke-width="5"/> </g>
<g><rect opacity="0.1" x="83.0703" y="86.6936" width="528.924" height="407.651" rx="77.5" stroke="#0C4CA3" stroke-width="5"/> </g>

    <g data-number="155" class="sector-item">
    <rect x="237.328" y="21.1179" width="41" height="59" fill="#F2F2F2" stroke="#BDBDBD"/>
    </g>
<g data-number="155" class="sector-item"><rect x="237.328" y="108.325" width="41" height="45.1713" fill="#FFE1C7" stroke="#BDBDBD"/>
<text x="50%" y="50%" fill="#000">22</text>
</g>
<g data-number="343" class="sector-item"><rect x="192.133" y="21.1179" width="41" height="59" fill="#F2F2F2" stroke="#BDBDBD"/> </g>
<g data-number="122" class="sector-item"><rect x="192.133" y="108.325" width="41" height="45.1713" fill="#FFE1C7" stroke="#BDBDBD"/> </g>
<g data-number="10" class="sector-item"><rect x="153.936" y="92.5361" width="79.1963" height="12.134" fill="#ECBBFF" stroke="#BDBDBD"/> </g>
<g data-number="27" class="sector-item"><rect x="237.328" y="92.5361" width="221.785" height="12.134" fill="#ECBBFF" stroke="#BDBDBD"/> </g>
<g data-number="65" class="sector-item"><rect x="463.309" y="92.5361" width="78.1807" height="12.134" fill="#ECBBFF" stroke="#BDBDBD"/> </g>
<g data-number="33" class="sector-item"><rect x="192.133" y="476.099" width="107.341" height="12.134" fill="#D8E8FF" stroke="#BDBDBD"/> </g>
<g data-number="11" class="sector-item"><rect x="303.08" y="476.099" width="90.2816" height="12.134" fill="#D8E8FF" stroke="#BDBDBD"/> </g>
<g data-number="55" class="sector-item"><rect x="398.23" y="476.099" width="106.079" height="12.134" fill="#D8E8FF" stroke="#BDBDBD"/> </g>
<g data-number="222" class="sector-item"><rect x="282.523" y="21.1179" width="41" height="59" fill="#FFE1C7" stroke="#BDBDBD"/> </g>
<g data-number="43" class="sector-item"><rect x="327.721" y="21.1179" width="41" height="59" fill="#FFE1C7" stroke="#BDBDBD"/> </g>
<g data-number="145" class="sector-item"><rect x="372.918" y="21.1179" width="41" height="59" fill="#FFE1C7" stroke="#BDBDBD"/> </g>
<g data-number="43" class="sector-item"><rect x="418.113" y="21.1179" width="41" height="59" fill="#F2F2F2" stroke="#BDBDBD"/> </g>
<g data-number="43" class="sector-item"><rect x="462.809" y="20.6179" width="42" height="60" fill="#E0E0E0"/> </g>
<g data-number="43" class="sector-item"><rect x="282.523" y="108.325" width="41" height="45.1713" fill="#ECBBFF" stroke="#BDBDBD"/> </g>
<g data-number="43" class="sector-item"><rect x="327.721" y="108.325" width="41" height="45.1713" fill="#ECBBFF" stroke="#BDBDBD"/> </g>
<g data-number="43" class="sector-item"><rect x="372.918" y="108.325" width="41" height="45.1713" fill="#ECBBFF" stroke="#BDBDBD"/> </g>
<g data-number="43" class="sector-item"><rect x="418.113" y="108.325" width="41" height="45.1713" fill="#FFE1C7" stroke="#BDBDBD"/> </g>
<g data-number="43" class="sector-item"><rect x="463.309" y="108.325" width="41" height="45.1713" fill="#FFE1C7" stroke="#BDBDBD"/> </g>
<g data-number="43" class="sector-item"><rect x="237.328" y="427.231" width="41" height="45.1713" fill="#FFE1C7" stroke="#BDBDBD"/> </g>
<g data-number="43" class="sector-item"><rect x="192.133" y="427.231" width="41" height="45.1713" fill="#FFE1C7" stroke="#BDBDBD"/> </g>
<g data-number="43" class="sector-item"><rect x="174.594" y="427.231" width="13.3418" height="45.1713" fill="#F2F2F2" stroke="#BDBDBD"/> </g>
<g data-number="43" class="sector-item"><rect x="418.113" y="427.231" width="41" height="45.1713" fill="#FFE1C7" stroke="#BDBDBD"/> </g>
<g data-number="43" class="sector-item"><rect x="373.361" y="427.231" width="41" height="25.6282" fill="#D8E8FF" stroke="#BDBDBD"/> </g>
<g data-number="43" class="sector-item"><rect x="327.936" y="427.231" width="41" height="25.6282" fill="#D8E8FF" stroke="#BDBDBD"/> </g>
<g data-number="43" class="sector-item"><rect x="282.08" y="427.231" width="41" height="25.6282" fill="#ECBBFF" stroke="#BDBDBD"/> </g>
<g data-number="43" class="sector-item"><rect x="373.361" y="456.037" width="41" height="16.3652" fill="#D8E8FF" stroke="#BDBDBD"/> </g>
<g data-number="43" class="sector-item"><rect x="327.936" y="456.037" width="41" height="16.3652" fill="#D8E8FF" stroke="#BDBDBD"/> </g>
<g data-number="43" class="sector-item"><rect x="282.08" y="456.037" width="41" height="16.3652" fill="#D8E8FF" stroke="#BDBDBD"/> </g>
<g data-number="43" class="sector-item"><rect x="463.309" y="427.231" width="41" height="45.1713" fill="#FFE1C7" stroke="#BDBDBD"/> </g>
<g data-number="43" class="sector-item"><path d="M508.506 21.1179H547.365L532.615 80.1179H508.506V21.1179Z" fill="#F2F2F2" stroke="#BDBDBD"/> </g>
<g data-number="43" class="sector-item"><path d="M537.806 80.1179L551.573 21.1179H582.471L561.821 80.1179H537.806Z" fill="#F2F2F2" stroke="#BDBDBD"/> </g>
<g data-number="43" class="sector-item"><path d="M187.936 21.1179H121.186L145.769 80.1179H187.936V21.1179Z" fill="#F2F2F2" stroke="#BDBDBD"/> </g>
<g data-number="43" class="sector-item"><path d="M187.936 107.632H154.148L170.786 153.632H187.936V107.632Z" fill="#F2F2F2" stroke="#BDBDBD"/> </g>
<g data-number="43" class="sector-item"><rect x="0.5" y="-0.5" width="41" height="59" transform="matrix(1 0 0 -1 236.828 559.059)" fill="#F2F2F2" stroke="#BDBDBD"/> </g>
<g data-number="43" class="sector-item"><rect x="0.5" y="-0.5" width="41" height="59" transform="matrix(1 0 0 -1 191.633 559.059)" fill="#F2F2F2" stroke="#BDBDBD"/> </g>
<g data-number="43" class="sector-item"><rect x="0.5" y="-0.5" width="41" height="59" transform="matrix(1 0 0 -1 282.023 559.059)" fill="#F2F2F2" stroke="#BDBDBD"/> </g>
<g data-number="43" class="sector-item"><rect x="0.5" y="-0.5" width="41" height="59" transform="matrix(1 0 0 -1 327.221 559.059)" fill="#F2F2F2" stroke="#BDBDBD"/> </g>
<g data-number="43" class="sector-item"><rect x="0.5" y="-0.5" width="41" height="59" transform="matrix(1 0 0 -1 372.418 559.059)" fill="#F2F2F2" stroke="#BDBDBD"/> </g>
<g data-number="43" class="sector-item"><rect x="0.5" y="-0.5" width="41" height="59" transform="matrix(1 0 0 -1 417.613 559.059)" fill="#F2F2F2" stroke="#BDBDBD"/> </g>
<g data-number="43" class="sector-item"><rect x="0.5" y="-0.5" width="41" height="59" transform="matrix(1 0 0 -1 462.809 559.059)" fill="#F2F2F2" stroke="#BDBDBD"/> </g>
<g data-number="43" class="sector-item"><path d="M508.506 559.559H573.301L552.651 500.559H508.506V559.559Z" fill="#F2F2F2" stroke="#BDBDBD"/> </g>
<g data-number="43" class="sector-item"><path d="M161.929 500.559L152.096 559.559H113.27L137.853 500.559H161.929Z" fill="#F2F2F2" stroke="#BDBDBD"/> </g>
<g data-number="43" class="sector-item"><path d="M187.816 500.559V559.559H156.907L166.74 500.559H187.816Z" fill="#F2F2F2" stroke="#BDBDBD"/> </g>
<g data-number="43" class="sector-item"><rect x="20.8926" y="402.535" width="41" height="59" transform="rotate(-90 20.8926 402.535)" fill="#F2F2F2" stroke="#BDBDBD"/> </g>
<g data-number="43" class="sector-item"><rect x="20.8926" y="357.339" width="41" height="59" transform="rotate(-90 20.8926 357.339)" fill="#F2F2F2" stroke="#BDBDBD"/> </g>
<g data-number="43" class="sector-item"><rect x="20.8926" y="312.143" width="41" height="59" transform="rotate(-90 20.8926 312.143)" fill="#F2F2F2" stroke="#BDBDBD"/> </g>
<g data-number="43" class="sector-item"><rect x="20.8926" y="266.947" width="41" height="59" transform="rotate(-90 20.8926 266.947)" fill="#F2F2F2" stroke="#BDBDBD"/> </g>
<g data-number="43" class="sector-item"><rect x="20.8926" y="221.751" width="41" height="59" transform="rotate(-90 20.8926 221.751)" fill="#F2F2F2" stroke="#BDBDBD"/> </g>
<g data-number="43" class="sector-item"><rect x="107.109" y="402.535" width="41" height="40.7928" transform="rotate(-90 107.109 402.535)" fill="#F2F2F2" stroke="#BDBDBD"/> </g>
<g data-number="43" class="sector-item"><rect x="107.109" y="357.339" width="41" height="40.7928" transform="rotate(-90 107.109 357.339)" fill="#F2F2F2" stroke="#BDBDBD"/> </g>
<g data-number="43" class="sector-item"><rect x="88.0898" y="402.535" width="69.1656" height="14.8144" transform="rotate(-90 88.0898 402.535)" fill="#FFE1C7" stroke="#BDBDBD"/> </g>
<g data-number="43" class="sector-item"><rect x="88.0898" y="329.315" width="148.564" height="14.8144" transform="rotate(-90 88.0898 329.315)" fill="#FFE1C7" stroke="#BDBDBD"/> </g>
<g data-number="43" class="sector-item"><rect x="592.115" y="402.535" width="221.784" height="14.8144" transform="rotate(-90 592.115 402.535)" fill="#FFE1C7" stroke="#BDBDBD"/> </g>
<g data-number="43" class="sector-item"><path d="M591.986 147.171L592.116 147.314L592.116 147.508L592.116 174.807L606.931 174.807L606.931 147.641L596.859 130.092L582.834 137.105L591.986 147.171Z" fill="#FFE1C7" stroke="#BDBDBD"/> </g>
<g data-number="43" class="sector-item"><path d="M591.986 434.43L592.116 434.287L592.116 434.094L592.116 406.794L606.931 406.794L606.931 433.96L596.859 451.51L582.834 444.497L591.986 434.43Z" fill="#FFE1C7" stroke="#BDBDBD"/> </g>
<g data-number="43" class="sector-item"><rect x="107.109" y="312.143" width="41" height="40.7928" transform="rotate(-90 107.109 312.143)" fill="#F2F2F2" stroke="#BDBDBD"/> </g>
<g data-number="43" class="sector-item"><rect x="107.109" y="266.947" width="41" height="40.7928" transform="rotate(-90 107.109 266.947)" fill="#F2F2F2" stroke="#BDBDBD"/> </g>
<g data-number="43" class="sector-item"><rect x="107.109" y="221.751" width="41" height="40.7928" transform="rotate(-90 107.109 221.751)" fill="#F2F2F2" stroke="#BDBDBD"/> </g>
<g data-number="43" class="sector-item"><rect x="548.506" y="402.535" width="41" height="40.7928" transform="rotate(-90 548.506 402.535)" fill="#F2F2F2" stroke="#BDBDBD"/> </g>
<g data-number="43" class="sector-item"><rect x="548.506" y="357.339" width="41" height="40.7928" transform="rotate(-90 548.506 357.339)" fill="#D8E8FF" stroke="#BDBDBD"/> </g>
<g data-number="43" class="sector-item"><rect x="548.506" y="312.143" width="41" height="40.7928" transform="rotate(-90 548.506 312.143)" fill="#D8E8FF" stroke="#BDBDBD"/> </g>
<g data-number="43" class="sector-item"><rect x="548.506" y="266.947" width="41" height="40.7928" transform="rotate(-90 548.506 266.947)" fill="#D8E8FF" stroke="#BDBDBD"/> </g>
<g data-number="43" class="sector-item"><rect x="548.506" y="221.751" width="41" height="40.7928" transform="rotate(-90 548.506 221.751)" fill="#F2F2F2" stroke="#BDBDBD"/> </g>
<g data-number="43" class="sector-item"><path d="M20.8926 177.008L20.8926 131.202L79.8926 150.868L79.8926 177.008L20.8926 177.008Z" fill="#F2F2F2" stroke="#BDBDBD"/> </g>
<g data-number="43" class="sector-item"><path d="M106.902 177.008L106.902 152.233L147.902 167.852L147.902 177.008L106.902 177.008Z" fill="#F2F2F2" stroke="#BDBDBD"/> </g>
<g data-number="43" class="sector-item"><path d="M107.308 148.318L148.23 108.036L164.825 153.918L148.351 163.953L107.308 148.318Z" fill="#F2F2F2" stroke="#BDBDBD"/> </g>
<g data-number="43" class="sector-item"><path d="M139.941 97.0186L145.46 106.215L103.963 147.064L94.8086 142.487L114.432 115.342L139.941 97.0186Z" fill="#FFE1C7" stroke="#BDBDBD"/> </g>
<g data-number="43" class="sector-item"><path d="M170.936 472.107H147.154L163.783 427.231H170.936V472.107Z" fill="#F2F2F2" stroke="#BDBDBD"/> </g>
<g data-number="43" class="sector-item"><path d="M106.902 406.731L106.902 428.506L147.902 412.887L147.902 406.731L106.902 406.731Z" fill="#F2F2F2" stroke="#BDBDBD"/> </g>
<g data-number="43" class="sector-item"><path d="M108.288 433.429L143.246 469.691L159.835 425.779L149.321 417.797L108.288 433.429Z" fill="#F2F2F2" stroke="#BDBDBD"/> </g>
<g data-number="43" class="sector-item"><rect x="-0.5" y="0.5" width="13.3418" height="45.1713" transform="matrix(-1 0 0 1 521.109 426.731)" fill="#F2F2F2" stroke="#BDBDBD"/> </g>
<g data-number="43" class="sector-item"><path d="M525.266 472.107H549.047L532.418 427.231H525.266V472.107Z" fill="#F2F2F2" stroke="#BDBDBD"/> </g>
<g data-number="43" class="sector-item"><path d="M589.299 406.731L589.299 428.506L548.299 412.887L548.299 406.731L589.299 406.731Z" fill="#F2F2F2" stroke="#BDBDBD"/> </g>
<g data-number="43" class="sector-item"><path d="M587.914 433.429L552.955 469.691L536.366 425.779L546.88 417.797L587.914 433.429Z" fill="#F2F2F2" stroke="#BDBDBD"/> </g>
<g data-number="43" class="sector-item"><path d="M507.49 107.632H541.278L524.639 153.632H507.49V107.632Z" fill="#F2F2F2" stroke="#BDBDBD"/> </g>
<g data-number="43" class="sector-item"><path d="M588.521 177.008L588.521 152.233L547.521 167.852L547.521 177.008L588.521 177.008Z" fill="#F2F2F2" stroke="#BDBDBD"/> </g>
<g data-number="43" class="sector-item"><path d="M588.116 148.318L547.194 108.036L530.598 153.918L547.072 163.953L588.116 148.318Z" fill="#F2F2F2" stroke="#BDBDBD"/> </g>
<g data-number="43" class="sector-item"><path d="M22.8143 126.208L47.2019 86.212L93.4366 120.642L81.7941 145.868L22.8143 126.208Z" fill="#F2F2F2" stroke="#BDBDBD"/> </g>
<g data-number="43" class="sector-item"><path d="M83.4295 45.6153L116.22 21.3991L140.801 80.393L116.592 93.4795L83.4295 45.6153Z" fill="#F2F2F2" stroke="#BDBDBD"/> </g>
<g data-number="43" class="sector-item"><path d="M112.794 97.0823L94.0039 116.818L47.8141 82.4211L79.6791 49.2881L112.794 97.0823Z" fill="#F2F2F2" stroke="#BDBDBD"/> </g>
<g data-number="43" class="sector-item"><path d="M676.674 454.404L655.265 489.436L606.062 458.93L616.705 434.742L676.674 454.404Z" fill="#F2F2F2" stroke="#BDBDBD"/> </g>
<g data-number="43" class="sector-item"><path d="M615.048 533.001L579.294 559.195L557.677 500.238L581.901 488.112L615.048 533.001Z" fill="#F2F2F2" stroke="#BDBDBD"/> </g>
<g data-number="43" class="sector-item"><path d="M585.703 482.519L602.506 464.773L650.659 496.219L619.795 529.324L585.703 482.519Z" fill="#F2F2F2" stroke="#BDBDBD"/> </g>
<g data-number="43" class="sector-item"><path d="M20.8926 406.731L20.8926 451.526L79.8926 430.876L79.8926 406.731L20.8926 406.731Z" fill="#F2F2F2" stroke="#BDBDBD"/> </g>
<g data-number="43" class="sector-item"><rect x="-0.5" y="-0.5" width="41" height="59" transform="matrix(4.37114e-08 -1 -1 -4.37114e-08 676.43 402.035)" fill="#F2F2F2" stroke="#BDBDBD"/> </g>
<g data-number="43" class="sector-item"><rect x="-0.5" y="-0.5" width="41" height="59" transform="matrix(4.37114e-08 -1 -1 -4.37114e-08 676.43 356.839)" fill="#F2F2F2" stroke="#BDBDBD"/> </g>
<g data-number="43" class="sector-item"><rect x="-0.5" y="-0.5" width="41" height="59" transform="matrix(4.37114e-08 -1 -1 -4.37114e-08 676.43 311.643)" fill="#F2F2F2" stroke="#BDBDBD"/> </g>
<g data-number="43" class="sector-item"><rect x="-0.5" y="-0.5" width="41" height="59" transform="matrix(4.37114e-08 -1 -1 -4.37114e-08 676.43 266.447)" fill="#F2F2F2" stroke="#BDBDBD"/> </g>
<g data-number="43" class="sector-item"><rect x="-0.5" y="-0.5" width="41" height="59" transform="matrix(4.37114e-08 -1 -1 -4.37114e-08 676.43 221.251)" fill="#F2F2F2" stroke="#BDBDBD"/> </g>
<g data-number="43" class="sector-item"><path d="M676.93 176.555L676.93 130.748L617.93 150.415L617.93 176.555L676.93 176.555Z" fill="#F2F2F2" stroke="#BDBDBD"/> </g>
<g data-number="43" class="sector-item"><path d="M617.712 145.726L676.678 126.071L657.256 94.026L608.06 122.56L617.712 145.726Z" fill="#F2F2F2" stroke="#BDBDBD"/> </g>
<g data-number="43" class="sector-item"><path d="M80.1061 434.805L21.1398 455.443L40.566 487.496L89.7678 458.959L80.1061 434.805Z" fill="#F2F2F2" stroke="#BDBDBD"/> </g>
<g data-number="43" class="sector-item"><path d="M676.93 406.731L676.93 448.537L617.93 428.871L617.93 406.731L676.93 406.731Z" fill="#F2F2F2" stroke="#BDBDBD"/> </g>
<g ><rect x="163.436" y="169.5" width="370" height="240" fill="#6FCF97"/> </g>
<g ><rect x="178.855" y="180.751" width="169.118" height="217.369" stroke="#B0E0C4"/> </g>
<g ><rect x="348.721" y="180.751" width="169.118" height="217.369" stroke="#B0E0C4"/> </g>
<g ><rect x="178.855" y="222.751" width="60.443" height="133.369" stroke="#B0E0C4"/> </g>
<g ><rect x="457.396" y="222.751" width="60.443" height="133.369" stroke="#B0E0C4"/> </g>
<g ><circle cx="348.473" cy="289.5" r="29.5" stroke="#B0E0C4"/> </g>
<g ><circle cx="348.473" cy="289.435" r="3" fill="#B0E0C4"/> </g>
<g ><path d="M508.125 180.251C508.125 185.892 512.699 190.466 518.34 190.466V180.251H508.125Z" fill="#B0E0C4"/> </g>
<g ><path d="M508.125 398.62C508.125 392.978 512.699 388.405 518.34 388.405V398.62H508.125Z" fill="#B0E0C4"/> </g>
<g ><path d="M188.57 180.251C188.57 185.892 183.997 190.466 178.355 190.466V180.251H188.57Z" fill="#B0E0C4"/> </g>
<g ><path d="M188.57 398.62C188.57 392.978 183.997 388.405 178.355 388.405V398.62H188.57Z" fill="#B0E0C4"/> </g>
</svg>
