<svg width="20" height="20" viewBox="0 0 20 20" fill="none" xmlns="http://www.w3.org/2000/svg">
<path fill-rule="evenodd" clip-rule="evenodd" d="M17.5 8.33334C17.5 14.1667 10 19.1667 10 19.1667C10 19.1667 2.5 14.1667 2.5 8.33334C2.5 4.19121 5.85786 0.833344 10 0.833344C14.1421 0.833344 17.5 4.19121 17.5 8.33334ZM12.5 8.33334C12.5 9.71406 11.3807 10.8333 10 10.8333C8.61929 10.8333 7.5 9.71406 7.5 8.33334C7.5 6.95263 8.61929 5.83334 10 5.83334C11.3807 5.83334 12.5 6.95263 12.5 8.33334Z" fill="#F9CA22"/>
<path fill-rule="evenodd" clip-rule="evenodd" d="M10 19.1667C10 19.1667 17.5 14.1667 17.5 8.33334C17.5 4.19121 14.1421 0.833344 10 0.833344C5.85786 0.833344 2.5 4.19121 2.5 8.33334C2.5 14.1667 10 19.1667 10 19.1667ZM12.5 8.33334C12.5 9.71406 11.3807 10.8333 10 10.8333C8.61929 10.8333 7.5 9.71406 7.5 8.33334C7.5 6.95263 8.61929 5.83334 10 5.83334C11.3807 5.83334 12.5 6.95263 12.5 8.33334Z" fill="#F9CA22"/>
</svg>
