<svg width="23" height="23" viewBox="0 0 23 23" fill="none" xmlns="http://www.w3.org/2000/svg">
<path fill-rule="evenodd" clip-rule="evenodd" d="M21.5229 16.3372V19.3372C21.5252 19.9004 21.2899 20.4384 20.875 20.8191C20.46 21.1998 19.9038 21.3879 19.3429 21.3372C16.2657 21.0029 13.3099 19.9514 10.7129 18.2672C8.29672 16.7319 6.24823 14.6834 4.71289 12.2672C3.02287 9.65842 1.97113 6.68821 1.64289 3.59721C1.59236 3.03808 1.77916 2.48347 2.15766 2.06883C2.53615 1.6542 3.07148 1.41774 3.63289 1.41721H6.63289C7.63675 1.40733 8.49239 2.14318 8.63289 3.13721C8.75951 4.09728 8.99434 5.03994 9.33289 5.94721C9.60762 6.67809 9.4319 7.50202 8.88289 8.05721L7.61289 9.32721C9.03644 11.8308 11.1093 13.9037 13.6129 15.3272L14.8829 14.0572C15.4381 13.5082 16.262 13.3325 16.9929 13.6072C17.9002 13.9458 18.8428 14.1806 19.8029 14.3072C20.8085 14.4491 21.5481 15.322 21.5229 16.3372Z" stroke="#333333" stroke-width="2" stroke-linecap="round" stroke-linejoin="round"/>
</svg>
