<svg width="19" height="20" viewBox="0 0 19 20" fill="none" xmlns="http://www.w3.org/2000/svg">
<path fill-rule="evenodd" clip-rule="evenodd" d="M2.33407 7.45935V12.2073L9.6674 16.974L17.0007 12.2073V7.45935L9.6674 2.69269L2.33407 7.45935ZM9.6674 1.5L9.12242 0.661556L0.789082 6.07822C0.505289 6.26269 0.33407 6.57819 0.33407 6.91667V12.75C0.33407 13.0885 0.505289 13.404 0.789082 13.5884L9.12242 19.0051C9.45381 19.2205 9.88099 19.2205 10.2124 19.0051L18.5457 13.5884C18.8295 13.404 19.0007 13.0885 19.0007 12.75V6.91667C19.0007 6.57819 18.8295 6.26269 18.5457 6.07822L10.2124 0.661556L9.6674 1.5Z" fill="#FACA22"/>
<path fill-rule="evenodd" clip-rule="evenodd" d="M9.6674 11.75C10.2197 11.75 10.6674 12.1977 10.6674 12.75V18.1667C10.6674 18.719 10.2197 19.1667 9.6674 19.1667C9.11512 19.1667 8.6674 18.719 8.6674 18.1667V12.75C8.6674 12.1977 9.11512 11.75 9.6674 11.75Z" fill="#FACA22"/>
<path fill-rule="evenodd" clip-rule="evenodd" d="M0.514838 6.3432C0.831553 5.89075 1.45508 5.78072 1.90753 6.09743L9.6674 11.5293L17.4273 6.09743C17.8797 5.78072 18.5033 5.89075 18.82 6.3432C19.1367 6.79565 19.0266 7.41918 18.5742 7.7359L10.2409 13.5692C9.89655 13.8103 9.43826 13.8103 9.09394 13.5692L0.760608 7.7359C0.308159 7.41918 0.198124 6.79565 0.514838 6.3432Z" fill="#FACA22"/>
<path fill-rule="evenodd" clip-rule="evenodd" d="M9.09394 6.09743C9.43826 5.85641 9.89655 5.85641 10.2409 6.09743L18.5742 11.9308C19.0266 12.2475 19.1367 12.871 18.82 13.3235C18.5033 13.7759 17.8797 13.8859 17.4273 13.5692L9.6674 8.13732L1.90753 13.5692C1.45508 13.8859 0.831553 13.7759 0.514838 13.3235C0.198124 12.871 0.308159 12.2475 0.760608 11.9308L9.09394 6.09743Z" fill="#FACA22"/>
<path fill-rule="evenodd" clip-rule="evenodd" d="M9.6674 0.5C10.2197 0.5 10.6674 0.947715 10.6674 1.5V6.91667C10.6674 7.46895 10.2197 7.91667 9.6674 7.91667C9.11512 7.91667 8.6674 7.46895 8.6674 6.91667V1.5C8.6674 0.947715 9.11512 0.5 9.6674 0.5Z" fill="#FACA22"/>
</svg>
