<svg width="25" height="25" viewBox="0 0 25 25" fill="none" xmlns="http://www.w3.org/2000/svg">
<path fill-rule="evenodd" clip-rule="evenodd" d="M8.52344 23.4172C9.62801 23.4172 10.5234 22.5218 10.5234 21.4172C10.5234 20.3127 9.62801 19.4172 8.52344 19.4172C7.41887 19.4172 6.52344 20.3127 6.52344 21.4172C6.52344 22.5218 7.41887 23.4172 8.52344 23.4172Z" stroke="#0C4CA3" stroke-width="2" stroke-linecap="round" stroke-linejoin="round"/>
<path fill-rule="evenodd" clip-rule="evenodd" d="M20.5234 23.4172C21.628 23.4172 22.5234 22.5218 22.5234 21.4172C22.5234 20.3127 21.628 19.4172 20.5234 19.4172C19.4189 19.4172 18.5234 20.3127 18.5234 21.4172C18.5234 22.5218 19.4189 23.4172 20.5234 23.4172Z" stroke="#0C4CA3" stroke-width="2" stroke-linecap="round" stroke-linejoin="round"/>
<path d="M6.19344 6.41724H23.5234L21.8434 14.8072C21.6547 15.7575 20.8121 16.4358 19.8434 16.4172H9.27344C8.26292 16.4258 7.40477 15.6792 7.27344 14.6772L5.75344 3.15724C5.62306 2.16283 4.77635 1.41875 3.77344 1.41724H1.52344" stroke="#0C4CA3" stroke-width="2" stroke-linecap="round" stroke-linejoin="round"/>
</svg>
